<?xml version="1.0" standalone="no"?><!DOCTYPE svg PUBLIC "-//W3C//DTD SVG 1.1//EN" "http://www.w3.org/Graphics/SVG/1.1/DTD/svg11.dtd"><svg t="1684586465554" class="icon" viewBox="0 0 1024 1024" version="1.1" xmlns="http://www.w3.org/2000/svg" p-id="15177" xmlns:xlink="http://www.w3.org/1999/xlink" width="200" height="200"><path d="M645.697 986.507a22.84 22.84 0 0 1-8.802-1.757L92.391 758.469c-11.78-4.906-17.351-18.556-12.421-30.431L359.008 56.572c3.632-8.752 12.095-14.409 21.558-14.409 3.025 0 5.981 0.588 8.786 1.748l544.48 226.3c5.663 2.345 10.089 6.788 12.455 12.506 2.393 5.783 2.392 12.145-0.005 17.914L667.241 972.106c-3.636 8.749-12.092 14.401-21.544 14.401zM380.565 52.345a13.135 13.135 0 0 0-12.156 8.132L89.372 731.942c-2.779 6.695 0.33 14.378 6.929 17.125l544.501 226.28c1.564 0.647 3.21 0.979 4.896 0.979 5.324 0 10.09-3.189 12.142-8.125l279.04-671.476a13.11 13.11 0 0 0 0-10.115c-1.325-3.204-3.794-5.688-6.948-6.995L385.452 53.316a12.745 12.745 0 0 0-4.887-0.971z" p-id="15178"></path><path d="M387.406 48.616l544.472 226.296c9.198 3.809 13.547 14.513 9.702 23.767L662.539 970.154c-3.845 9.253-14.491 13.715-23.69 9.894L94.344 753.768c-9.172-3.819-13.521-14.51-9.673-23.777L363.708 58.525c3.848-9.269 14.498-13.714 23.698-9.909z" fill="#F3EC9B" p-id="15179"></path><path d="M337.377 220.652L567.1 316.133l-3.907 9.402-229.722-95.481zM314.928 274.675l229.717 95.454-3.907 9.402-229.717-95.455zM292.461 328.727l229.747 95.466-3.907 9.401-229.746-95.466zM270.006 382.823l229.76 95.461-3.907 9.402-229.76-95.461zM247.532 436.826l229.745 95.465-3.906 9.401-229.745-95.465zM225.07 490.875l229.746 95.466-3.907 9.403-229.746-95.466zM202.608 544.948l229.72 95.48-3.908 9.404L198.7 554.35zM180.157 598.989l229.715 95.453-3.907 9.402L176.25 608.39zM157.681 653.061l229.69 95.468-3.908 9.402-229.69-95.468zM135.218 707.111l229.694 95.47-3.907 9.402-229.694-95.47zM622.16 338.965l229.715 95.454-3.906 9.4-229.715-95.453zM599.711 393.035l229.698 95.47-3.908 9.403-229.697-95.471zM577.238 447.06l229.712 95.452-3.906 9.401-229.712-95.452zM554.744 501.152l229.718 95.48-3.907 9.401-229.719-95.48zM532.305 555.157l229.744 95.466-3.907 9.402L528.4 564.56zM509.849 609.204l229.743 95.465-3.908 9.403-229.742-95.465zM487.385 663.257l229.743 95.465-3.906 9.401-229.743-95.465zM464.933 717.322l229.711 95.452-3.906 9.4-229.712-95.451zM442.458 771.375l229.715 95.453-3.906 9.402-229.716-95.453zM420.014 825.42l229.719 95.455-3.907 9.402-229.719-95.455z" p-id="15180"></path><path d="M807.943 901.236H218.309c-12.782 0-23.18-10.463-23.18-23.321V150.756c0-12.854 10.398-23.311 23.18-23.311h589.634c12.781 0 23.182 10.457 23.182 23.311v727.159c0 12.858-10.4 23.321-23.182 23.321z m-589.634-763.61c-7.167 0-12.999 5.89-12.999 13.129v727.159c0 7.245 5.831 13.14 12.999 13.14h589.634c7.169 0 13-5.895 13-13.14V150.756c0-7.24-5.831-13.129-13-13.129H218.309z" p-id="15181"></path><path d="M218.309 132.536h589.634c9.95 0 18.092 8.196 18.092 18.22v727.159c0 10.018-8.142 18.23-18.092 18.23H218.309c-9.954 0-18.089-8.213-18.089-18.23V150.756c0-10.025 8.135-18.22 18.089-18.22z" fill="#FFFFFF" p-id="15182"></path><path d="M238.157 310.563H486.92v10.182H238.157zM238.157 369.102H486.92v10.181H238.157zM238.157 427.643H486.92v10.181H238.157zM238.157 486.185H486.92v10.181H238.157zM238.157 544.71H486.92v10.181H238.157zM238.157 603.247H486.92v10.182H238.157zM238.157 661.772H486.92v10.182H238.157zM238.157 720.313H486.92v10.183H238.157zM238.157 778.851H486.92v10.182H238.157zM238.157 837.376H486.92v10.181H238.157zM546.521 310.563h248.767v10.182H546.521zM546.521 369.102h248.767v10.181H546.521zM546.521 427.643h248.767v10.181H546.521zM546.521 486.185h248.767v10.181H546.521zM546.521 544.71h248.767v10.181H546.521zM546.521 603.247h248.767v10.182H546.521zM546.521 661.772h248.767v10.182H546.521zM546.521 720.313h248.767v10.183H546.521zM546.521 778.851h248.767v10.182H546.521zM546.521 837.376h248.767v10.181H546.521z" p-id="15183"></path></svg>