<?xml version="1.0" standalone="no"?><!DOCTYPE svg PUBLIC "-//W3C//DTD SVG 1.1//EN" "http://www.w3.org/Graphics/SVG/1.1/DTD/svg11.dtd"><svg t="1684936456770" class="icon" viewBox="0 0 1024 1024" version="1.1" xmlns="http://www.w3.org/2000/svg" p-id="5018" xmlns:xlink="http://www.w3.org/1999/xlink" width="200" height="200"><path d="M512 1024C76.96384 1024 0 947.03616 0 512S76.96384 0 512 0 1024 76.96384 1024 512 947.022507 1024 512 1024z m0-998.4C98.727253 25.6 25.6 98.7136 25.6 512S98.727253 998.4 512 998.4 998.4 925.272747 998.4 512 925.272747 25.6 512 25.6z" fill="#C1D4FC" p-id="5019"></path><path d="M279.893333 785.066667c-101.034667 0-177.793707-5.270187-236.05248-21.149014C30.26944 698.69568 25.6 616.174933 25.6 512 25.6 98.7136 98.727253 25.6 512 25.6c31.402667 0 60.648107 0.49152 88.255147 1.447253C671.45728 83.367253 689.493333 187.665067 689.493333 375.466667c0 348.023467-61.576533 409.6-409.6 409.6z" fill="#4D7DDD" opacity=".1" p-id="5020"></path><path d="M682.666667 696.32H300.373333a27.306667 27.306667 0 0 1-27.306666-27.306667V354.986667h409.6v341.333333z" fill="#C1D4FC" p-id="5021"></path><path d="M809.792853 542.88384h-16.62976a16.67072 16.67072 0 0 0-16.62976 16.62976v-16.62976c0 36.57728-24.94464 49.875627-53.248 29.928107l-11.646293-8.31488v113.0496a66.710187 66.710187 0 0 1-66.51904 66.491733h-133.010773A136.424107 136.424107 0 0 0 450.56 760.66816l-121.391787 73.140907c-31.593813 19.94752-51.554987 6.649173-44.905813-29.914454l8.31488-44.878506a12.73856 12.73856 0 0 0-13.298347-16.62976H244.394667a66.710187 66.710187 0 0 1-66.51904-66.491734V409.88672a66.710187 66.710187 0 0 1 66.51904-66.491733H259.413333v33.245866h-15.018666a33.355093 33.355093 0 0 0-33.25952 33.245867V675.84a33.355093 33.355093 0 0 0 33.25952 33.286827h61.44a26.66496 26.66496 0 0 1 26.610346 33.245866l-9.980586 46.557867c-3.331413 8.31488 1.665707 11.63264 9.980586 6.649173l108.107094-68.15744a132.683093 132.683093 0 0 1 61.535573-18.295466h141.407573a33.355093 33.355093 0 0 0 33.245867-33.286827V532.48H716.8l13.120853 8.751787c6.649173 4.983467 13.312 1.665707 13.312-8.31488v9.966933a33.355093 33.355093 0 0 1 33.25952-33.245867h16.62976a15.714987 15.714987 0 0 0 16.62976-16.62976V293.546667a17.885867 17.885867 0 0 0-16.62976-16.62976H778.24v-33.273174h31.552853a33.355093 33.355093 0 0 1 33.25952 33.245867v232.748373a33.355093 33.355093 0 0 1-33.25952 33.245867z m-315.979093 93.7984H294.242987a16.657067 16.657067 0 0 1-16.62976-16.616107 15.714987 15.714987 0 0 1 16.62976-16.5888h199.570773a16.657067 16.657067 0 0 1 16.62976 16.62976 15.701333 15.701333 0 0 1-16.62976 16.575147z m201.60512-408.302933a27.183787 27.183787 0 0 0-10.676907 3.31776 33.846613 33.846613 0 0 1-14.936746 3.31776l-10.922667-2.37568a160.39936 160.39936 0 0 0-19.90656-0.94208l-15.1552 0.4096a12.288 12.288 0 0 1-7.82336-2.853547 23.210667 23.210667 0 0 1-5.925547-12.288 76.1856 76.1856 0 0 0-5.215573-15.168853 9.448107 9.448107 0 0 0-9.0112-5.69344 15.93344 15.93344 0 0 0-12.096853 8.533333 45.75232 45.75232 0 0 0-7.591254 19.674453 13.1072 13.1072 0 0 1-11.618986 12.561067q-24.180053 3.80928-38.884694 7.591253a98.63168 98.63168 0 0 1-19.920213 3.795627q-15.182507 0.477867-15.168853 8.533333a20.657493 20.657493 0 0 0 7.591253 12.806827 49.902933 49.902933 0 0 1 10.922667 35.498667 109.636267 109.636267 0 0 1-11.38688 47.88224 21.01248 21.01248 0 0 0-2.37568 9.489066 7.809707 7.809707 0 0 0 8.055466 9.475414 12.547413 12.547413 0 0 0 6.171307-1.897814 135.891627 135.891627 0 0 1 42.68032-13.694293 259.222187 259.222187 0 0 1 44.56448-6.157653 141.448533 141.448533 0 0 1 19.674453 0.94208 117.418667 117.418667 0 0 0 17.298774 0.94208 54.613333 54.613333 0 0 0 23.702186-5.925547 17.2032 17.2032 0 0 0 12.288-13.981013 10.663253 10.663253 0 0 0-0.477866-3.31776 78.219947 78.219947 0 0 1 7.113386-31.771307 86.480213 86.480213 0 0 1 15.168854-31.771307 32.303787 32.303787 0 0 0 12.806826-26.077866 8.901973 8.901973 0 0 0-9.0112-10.922667zM614.4 269.161813q0-16.110933 8.06912-16.124586a128.600747 128.600747 0 0 1 22.050133 2.607786 63.0784 63.0784 0 0 1 16.83456 4.5056 7.400107 7.400107 0 0 1 2.839894 6.63552 5.911893 5.911893 0 0 1-3.56352 6.157654 65.030827 65.030827 0 0 1-16.83456 1.897813q-13.284693 0.477867-19.442347 0.94208h-1.952427a6.567253 6.567253 0 0 1-8.000853-6.621867z m-81.073493 8.301227a26.25536 26.25536 0 0 1 1.88416-10.676907 23.606613 23.606613 0 0 1 16.5888-6.826666 151.292587 151.292587 0 0 1 18.500266-2.607787 5.20192 5.20192 0 0 1 4.9152 2.061653 20.261547 20.261547 0 0 1 1.18784 8.533334 14.445227 14.445227 0 0 1-2.37568 9.243306 15.5648 15.5648 0 0 1-10.431146 3.56352q-8.06912 0.709973-14.226774 1.897814a55.41888 55.41888 0 0 1-8.055466 1.18784 6.498987 6.498987 0 0 1-8.055467-6.38976z m69.2224 45.274453a31.648427 31.648427 0 0 1 2.839893-11.618986 17.640107 17.640107 0 0 1 16.384-8.055467q13.5168-1.174187 24.41216-1.18784a4.58752 4.58752 0 0 1 5.69344 4.5056 44.796587 44.796587 0 0 1-1.665707 10.922667 14.062933 14.062933 0 0 1-3.795626 7.82336 12.752213 12.752213 0 0 1-6.826667 1.365333l-29.873493 0.94208q-7.236267 0.04096-7.236267-4.696747z m-71.120214 8.055467a29.723307 29.723307 0 0 1 1.652054-11.373227 13.503147 13.503147 0 0 1 4.273493-5.69344 43.854507 43.854507 0 0 1 14.45888-3.795626 124.327253 124.327253 0 0 1 16.5888-1.897814 6.3488 6.3488 0 0 1 5.925547 2.12992 19.401387 19.401387 0 0 1 1.18784 8.301227 12.834133 12.834133 0 0 1-3.31776 9.489067 24.302933 24.302933 0 0 1-13.27104 4.737706l-23.210667 3.31776a4.232533 4.232533 0 0 1-4.25984-5.215573z m-31.839573-116.16256a80.03584 80.03584 0 0 1-18.486613-2.362027 202.274133 202.274133 0 0 0-47.895894-4.75136 197.454507 197.454507 0 0 0-67.09248 8.779094 108.612267 108.612267 0 0 1-33.191253 8.779093 17.640107 17.640107 0 0 0-14.936747 6.171307 23.033173 23.033173 0 0 0-4.737706 14.45888 20.616533 20.616533 0 0 0 5.69344 14.45888 22.07744 22.07744 0 0 0 12.0832 7.345493 22.528 22.528 0 0 1 9.489066 3.549867 12.288 12.288 0 0 1 4.273494 6.157653 218.248533 218.248533 0 0 1 3.795626 22.514347 293.35552 293.35552 0 0 1 2.607787 40.30464 301.533867 301.533867 0 0 1-4.25984 47.895893q-4.273493 26.309973-6.63552 37.451093a25.408853 25.408853 0 0 1-10.431147 16.5888 36.058453 36.058453 0 0 1-15.168853 6.403414 6.321493 6.321493 0 0 0-4.5056 5.925546 106.304853 106.304853 0 0 0-1.18784 19.442347 62.122667 62.122667 0 0 0 1.652053 18.254507 6.280533 6.280533 0 0 0 6.403414 4.273493 78.97088 78.97088 0 0 0 24.180053-11.38688 268.670293 268.670293 0 0 1 44.332373-20.384427 170.571093 170.571093 0 0 1 28.672-9.0112 10.267307 10.267307 0 0 1 11.373227 11.851094l-0.477867 26.077866a93.648213 93.648213 0 0 0 1.18784 20.384427 4.778667 4.778667 0 0 0 4.983467 3.31776q9.475413 0 17.544533-20.15232t8.055467-102.659413q0-38.406827 2.839893-85.11488t4.273494-51.44576a11.50976 11.50976 0 0 1 7.82336-7.113387 119.493973 119.493973 0 0 0 18.732373-9.95328 69.34528 69.34528 0 0 0 14.936747-10.922667 11.30496 11.30496 0 0 0 2.607786-7.113386 7.345493 7.345493 0 0 0-8.533333-8.014507z m-122.088107 71.120213a42.325333 42.325333 0 0 1-1.18784-12.288 19.442347 19.442347 0 0 1 3.085654-12.561066 45.30176 45.30176 0 0 1 22.514346-5.69344q19.442347-2.12992 26.555734-2.12992a11.782827 11.782827 0 0 1 8.533333 1.897813 19.114667 19.114667 0 0 1 1.365333 9.475413 15.742293 15.742293 0 0 1-4.096 11.618987 18.199893 18.199893 0 0 1-10.663253 4.969813 366.237013 366.237013 0 0 0-37.464747 7.591254 28.317013 28.317013 0 0 1-4.25984 0.477866 4.450987 4.450987 0 0 1-4.38272-3.35872z m-1.18784 61.6448a21.34016 21.34016 0 0 1 3.549867-11.38688 16.124587 16.124587 0 0 1 9.243307-7.345493q5.69344-1.652053 21.845333-5.215573a155.006293 155.006293 0 0 1 18.96448-3.549867q2.839893 0 2.839893 8.76544a34.133333 34.133333 0 0 1-1.665706 12.561067 11.113813 11.113813 0 0 1-8.779094 5.215573 303.909547 303.909547 0 0 0-37.92896 10.431147 5.28384 5.28384 0 0 1-2.37568 0.477866q-5.69344 0-5.69344-9.95328z m-9.038506 79.885654a61.044053 61.044053 0 0 1 3.085653-15.40096 33.46432 33.46432 0 0 1 24.890027-17.066667 151.729493 151.729493 0 0 1 26.077866-6.63552q6.63552 0 6.63552 9.0112a31.020373 31.020373 0 0 1-1.897813 12.806827 16.602453 16.602453 0 0 1-9.489067 6.63552q-7.591253 2.839893-26.077866 9.243306a166.720853 166.720853 0 0 1-20.384427 6.403414q-2.839893-0.013653-2.839893-4.99712zM682.666667 371.0976a268.683947 268.683947 0 0 0-56.89344-5.215573 285.791573 285.791573 0 0 0-116.640427 21.34016 33.068373 33.068373 0 0 1-11.618987 2.839893 22.678187 22.678187 0 0 1-6.63552-0.709973 11.741867 11.741867 0 0 0-3.56352-0.709974 12.288 12.288 0 0 0-9.95328 8.76544 34.57024 34.57024 0 0 0-4.25984 12.561067q0 9.557333 15.168854 9.489067a95.573333 95.573333 0 0 0 28.91776-6.403414 96.54272 96.54272 0 0 1 25.122133-6.403413q6.63552 0 6.63552 3.085653a35.211947 35.211947 0 0 1-4.096 11.618987 84.350293 84.350293 0 0 1-27.72992 24.180053 14.117547 14.117547 0 0 0-8.055467 10.922667q0 6.649173 9.0112 6.63552a20.35712 20.35712 0 0 0 7.113387-1.365333 271.947093 271.947093 0 0 1 88.664747-15.64672 185.890133 185.890133 0 0 1 23.47008 1.365333 31.634773 31.634773 0 0 1 12.806826 3.085653 9.202347 9.202347 0 0 1 1.665707 6.403414 36.563627 36.563627 0 0 1-6.826667 15.64672 35.949227 35.949227 0 0 1-19.21024 15.168853 82.957653 82.957653 0 0 1-27.306666 4.273493 127.126187 127.126187 0 0 0-37.218987 7.113387 67.242667 67.242667 0 0 1-15.414613 1.897813 27.142827 27.142827 0 0 0-10.431147 1.365334 4.54656 4.54656 0 0 0-3.085653 4.273493 6.007467 6.007467 0 0 0 3.795626 4.969813 101.485227 101.485227 0 0 0 22.28224 5.461334 247.31648 247.31648 0 0 0 43.144534 3.31776 85.920427 85.920427 0 0 0 42.202453-9.721174 46.98112 46.98112 0 0 0 22.760107-23.47008 91.245227 91.245227 0 0 1 19.920213-32.768 25.51808 25.51808 0 0 0 10.431147-15.414613 10.253653 10.253653 0 0 0-5.69344-9.243307 94.685867 94.685867 0 0 0-27.306667-6.403413 304.919893 304.919893 0 0 0-43.144533-3.085653 291.18464 291.18464 0 0 0-36.276907 1.897813q-7.591253 0.955733-7.591253-1.897813a27.593387 27.593387 0 0 1 7.113386-14.45888 30.856533 30.856533 0 0 1 25.84576-9.243307 77.824 77.824 0 0 1 34.379094 7.591253 68.512427 68.512427 0 0 0 29.873493 7.591254 55.104853 55.104853 0 0 0 40.536747-21.108054 83.831467 83.831467 0 0 0 19.196586-25.367893 1.365333 1.365333 0 0 0-1.652053-1.365333 32.139947 32.139947 0 0 0-7.345493 1.897813 37.983573 37.983573 0 0 1-12.096854 1.897813 59.050667 59.050667 0 0 0-18.254506 4.273494 6.580907 6.580907 0 0 1-2.839894 0.477866 45.38368 45.38368 0 0 1-9.0112-1.365333zM425.547093 568.415573h-131.304106a16.657067 16.657067 0 0 1-16.62976-16.616106 15.701333 15.701333 0 0 1 16.62976-16.5888h131.304106a16.657067 16.657067 0 0 1 16.62976 16.616106 15.701333 15.701333 0 0 1-16.62976 16.5888z m204.8 68.266667h-63.03744a16.657067 16.657067 0 0 1-16.62976-16.616107 15.701333 15.701333 0 0 1 16.62976-16.5888h63.03744a16.657067 16.657067 0 0 1 16.62976 16.62976 15.714987 15.714987 0 0 1-16.62976 16.575147z" fill="#4D7DDD" p-id="5022"></path></svg>